<svg xmlns="http://www.w3.org/2000/svg" width="36.084" height="34.342" viewBox="0 0 36.084 34.342"><g transform="translate(0 0)"><g transform="translate(0 0)"><g transform="translate(6.329)"><path d="M69.465.65V27.809a.65.65,0,0,1-.65.65H47.96c.021-.231.032-.467.032-.7a8.036,8.036,0,0,0-8.028-8.023H39.71V.65A.649.649,0,0,1,40.36,0h9.692V13.581a.661.661,0,0,0,.107.352.649.649,0,0,0,.9.19l3.521-2.348L58.1,14.124a.65.65,0,0,0,1.006-.542V0h9.706a.649.649,0,0,1,.652.65Z" transform="translate(-39.71 0)" fill="#fff"/><path d="M115.625,10.457a.652.652,0,0,1,.717,0l2.869,1.913V0H112.75V12.374Z" transform="translate(-101.109 0)" fill="#fff"/></g><path d="M13.165,139.452a6.582,6.582,0,1,1-6.582-6.582h0A6.582,6.582,0,0,1,13.165,139.452Zm-7.344,3.479,4.883-4.877a.426.426,0,0,0,0-.6h0l-.6-.6a.424.424,0,0,0-.6,0h0l-3.985,3.985-1.854-1.862a.426.426,0,0,0-.6,0h0l-.606.609a.426.426,0,0,0,0,.6h0l2.76,2.746a.424.424,0,0,0,.6,0Z" transform="translate(0 -111.693)" fill="#fff"/></g></g></svg>