<svg xmlns="http://www.w3.org/2000/svg" width="55" height="62.857" viewBox="0 0 55 62.857">
  <path id="building" d="M53.527,58.929H51.071V2.946A2.946,2.946,0,0,0,48.125,0H6.875A2.946,2.946,0,0,0,3.929,2.946V58.929H1.473A1.473,1.473,0,0,0,0,60.4v2.455H55V60.4A1.473,1.473,0,0,0,53.527,58.929ZM15.714,9.33a1.473,1.473,0,0,1,1.473-1.473H22.1A1.473,1.473,0,0,1,23.571,9.33v4.911A1.473,1.473,0,0,1,22.1,15.714H17.188a1.473,1.473,0,0,1-1.473-1.473Zm0,11.786a1.473,1.473,0,0,1,1.473-1.473H22.1a1.473,1.473,0,0,1,1.473,1.473v4.911A1.473,1.473,0,0,1,22.1,27.5H17.188a1.473,1.473,0,0,1-1.473-1.473ZM22.1,39.286H17.188a1.473,1.473,0,0,1-1.473-1.473V32.9a1.473,1.473,0,0,1,1.473-1.473H22.1A1.473,1.473,0,0,1,23.571,32.9v4.911A1.473,1.473,0,0,1,22.1,39.286Zm9.33,19.643H23.571V48.616a1.473,1.473,0,0,1,1.473-1.473h4.911a1.473,1.473,0,0,1,1.473,1.473Zm7.857-21.116a1.473,1.473,0,0,1-1.473,1.473H32.9a1.473,1.473,0,0,1-1.473-1.473V32.9A1.473,1.473,0,0,1,32.9,31.429h4.911A1.473,1.473,0,0,1,39.286,32.9Zm0-11.786A1.473,1.473,0,0,1,37.813,27.5H32.9a1.473,1.473,0,0,1-1.473-1.473V21.116A1.473,1.473,0,0,1,32.9,19.643h4.911a1.473,1.473,0,0,1,1.473,1.473Zm0-11.786a1.473,1.473,0,0,1-1.473,1.473H32.9a1.473,1.473,0,0,1-1.473-1.473V9.33A1.473,1.473,0,0,1,32.9,7.857h4.911A1.473,1.473,0,0,1,39.286,9.33Z" fill="#fff"/>
</svg>
