
<svg xmlns="http://www.w3.org/2000/svg" width="27.518" height="33.5" viewBox="0 0 27.518 33.5"><g transform="translate(-9 -4)"><path d="M36.518,29.723V4.6a.6.6,0,0,0-.6-.6H26.946V16.563a.6.6,0,0,1-.93.5l-3.257-2.173L19.5,17.059a.6.6,0,0,1-.93-.5V4H9.6a.6.6,0,0,0-.6.6V29.723a.6.6,0,0,0,.6.6H19.17v-1.2H16.777a.6.6,0,0,1-.459-.981L22.3,20.965a.618.618,0,0,1,.919,0L29.2,28.144a.6.6,0,0,1-.459.981H26.348v1.2H35.92A.6.6,0,0,0,36.518,29.723Z" fill="#ffffff"/><path d="M31.233,49.779V40.806a.6.6,0,0,1,.6-.6h1.714l-4.7-5.646-4.7,5.646h1.714a.6.6,0,0,1,.6.6v8.973Z" transform="translate(-6.081 -12.279)" fill="#ffffff"/><path d="M29.659,13.672a.6.6,0,0,1,.664,0l2.659,1.773V4H27V15.444Z" transform="translate(-7.232)" fill="#ffffff"/></g></svg>