

<svg xmlns="http://www.w3.org/2000/svg" width="27.453" height="33.086" viewBox="0 0 27.453 33.086"><g transform="translate(-9 -4)"><path d="M26.442,34v8.952a.6.6,0,0,1-.6.6h-1.71l4.694,5.633,4.694-5.633h-1.71a.6.6,0,0,1-.6-.6V34Z" transform="translate(-6.102 -12.096)" fill="#c4cad0"/><path d="M35.856,30.26a.6.6,0,0,0,.6-.6V4.6a.6.6,0,0,0-.6-.6H26.9V16.533a.6.6,0,0,1-.928.5l-3.25-2.168-3.25,2.166a.6.6,0,0,1-.928-.5V4H9.6a.6.6,0,0,0-.6.6V29.663a.6.6,0,0,0,.6.6h9.549V21.307a.6.6,0,0,1,.6-.6h5.968a.6.6,0,0,1,.6.6V30.26Z" fill="#c4cad0"/><path d="M29.653,13.649a.6.6,0,0,1,.662,0l2.653,1.768V4H27V15.418Z" transform="translate(-7.257)" fill="#c4cad0"/></g></svg>