<svg xmlns="http://www.w3.org/2000/svg" width="55" height="41.25" viewBox="0 0 55 41.25">
  <path id="envelope" d="M53.958,77.621a.647.647,0,0,1,1.042.5v21.968a5.158,5.158,0,0,1-5.156,5.156H5.156A5.158,5.158,0,0,1,0,100.094V78.137a.642.642,0,0,1,1.042-.5c2.406,1.869,5.6,4.243,16.554,12.2,2.267,1.654,6.091,5.135,9.9,5.113,3.835.032,7.734-3.523,9.915-5.113C48.372,81.875,51.552,79.49,53.958,77.621ZM27.5,91.5c2.492.043,6.08-3.137,7.885-4.447C49.64,76.708,50.725,75.806,54.012,73.228A2.571,2.571,0,0,0,55,71.2V69.156A5.158,5.158,0,0,0,49.844,64H5.156A5.158,5.158,0,0,0,0,69.156V71.2a2.586,2.586,0,0,0,.988,2.03c3.287,2.567,4.372,3.48,18.627,13.825C21.42,88.363,25.008,91.543,27.5,91.5Z" transform="translate(0 -64)" fill="#fff"/>
</svg>
