<svg id="phone" xmlns="http://www.w3.org/2000/svg" width="55.527" height="50.9" viewBox="0 0 55.527 50.9">
  <g id="Group_256" data-name="Group 256" transform="translate(0 0)">
    <g id="Group_255" data-name="Group 255">
      <path id="Path_71" data-name="Path 71" d="M54.582,32.493a37.8,37.8,0,0,0-53.635,0,3.264,3.264,0,0,0,0,4.6l5.335,5.361a3.437,3.437,0,0,0,4.732,0,23.362,23.362,0,0,1,6.02-4.387,3.207,3.207,0,0,0,1.81-2.772l.8-5.81a25.06,25.06,0,0,1,16.236,0l.8,5.665a3.3,3.3,0,0,0,1.792,2.928A23.433,23.433,0,0,1,44.5,42.464a3.352,3.352,0,0,0,4.732,0l5.349-5.376A3.265,3.265,0,0,0,54.582,32.493Z" transform="translate(0 -21.333)" fill="#fff"/>
      <path id="Path_72" data-name="Path 72" d="M81.194,194.925A5.879,5.879,0,0,0,76.045,192H55.972a5.879,5.879,0,0,0-5.149,2.925l-7.47,13.266a5.321,5.321,0,0,0-.686,2.6v7.738a4.555,4.555,0,0,0,4.668,4.422H84.682a4.555,4.555,0,0,0,4.668-4.422v-7.738a5.328,5.328,0,0,0-.686-2.6ZM59,216.319a2.214,2.214,0,1,1,2.334-2.211A2.277,2.277,0,0,1,59,216.319Zm0-6.633a2.214,2.214,0,1,1,2.334-2.211A2.277,2.277,0,0,1,59,209.687Zm0-6.633a2.214,2.214,0,1,1,2.334-2.211A2.277,2.277,0,0,1,59,203.054Zm7,13.265a2.214,2.214,0,1,1,2.334-2.211A2.277,2.277,0,0,1,66.009,216.319Zm0-6.633a2.214,2.214,0,1,1,2.334-2.211A2.277,2.277,0,0,1,66.009,209.687Zm0-6.633a2.214,2.214,0,1,1,2.334-2.211A2.277,2.277,0,0,1,66.009,203.054Zm7,13.265a2.214,2.214,0,1,1,2.334-2.211A2.277,2.277,0,0,1,73.009,216.319Zm0-6.633a2.214,2.214,0,1,1,2.334-2.211A2.277,2.277,0,0,1,73.009,209.687Zm0-6.633a2.214,2.214,0,1,1,2.334-2.211A2.277,2.277,0,0,1,73.009,203.054Z" transform="translate(-38.245 -172.052)" fill="#fff"/>
    </g>
  </g>
</svg>
