<svg xmlns="http://www.w3.org/2000/svg" width="33.133" height="39.604" viewBox="0 0 33.133 39.604"><g transform="translate(0 0.01)"><g transform="translate(0 -0.01)"><path d="M63.137,4.292H57.762a4.3,4.3,0,1,0-8.6,0H43.786A3.226,3.226,0,0,0,40.56,7.516V24.894h.134c5.019,0,9.1,3.456,9.1,7.705a6.536,6.536,0,0,1-.251,1.8H63.137a3.225,3.225,0,0,0,3.225-3.225V7.516A3.225,3.225,0,0,0,63.137,4.292ZM47.024,22.031h-.013a1.609,1.609,0,1,1,.013,0Zm0-6.451h-.013a1.609,1.609,0,1,1,.013,0Zm6.426-12.9h.011a1.609,1.609,0,1,1-.011,0ZM62.062,27.4a.542.542,0,0,1-.542.542H51.846A.542.542,0,0,1,51.3,27.4V26.32a.542.542,0,0,1,.542-.542h9.676a.542.542,0,0,1,.542.542Zm0-6.451a.542.542,0,0,1-.542.542H51.846a.542.542,0,0,1-.542-.542V19.874a.542.542,0,0,1,.542-.542h9.676a.542.542,0,0,1,.542.542Zm0-6.451a.542.542,0,0,1-.542.542H51.846A.542.542,0,0,1,51.3,14.5V13.431a.542.542,0,0,1,.542-.542h9.676a.542.542,0,0,1,.542.542Z" transform="translate(-33.229 0.01)" fill="#192129"/><path d="M7.465,146.83C3.342,146.83,0,149.541,0,152.9a5.378,5.378,0,0,0,1.663,3.81,7.352,7.352,0,0,1-1.6,2.794.233.233,0,0,0-.043.253.23.23,0,0,0,.213.139,6.663,6.663,0,0,0,4.1-1.5,8.867,8.867,0,0,0,3.132.566c4.123,0,7.465-2.711,7.465-6.064S11.588,146.83,7.465,146.83Zm-3.732,7a.934.934,0,1,1,.933-.933h0a.931.931,0,0,1-.931.933Zm3.732,0A.934.934,0,1,1,8.4,152.9h0a.931.931,0,0,1-.931.933Zm3.732,0a.934.934,0,1,1,.933-.933h0a.931.931,0,0,1-.924.933Z" transform="translate(0 -120.289)" fill="#192129"/></g></g></svg>